<?xml version="1.0" encoding="UTF-8"?>
<!DOCTYPE svg PUBLIC "-//W3C//DTD SVG 1.1//EN" "http://www.w3.org/Graphics/SVG/1.1/DTD/svg11.dtd">
<!-- Creator: CorelDRAW 2018 (64 Bit Versão de avaliação) -->
<svg xmlns="http://www.w3.org/2000/svg" xml:space="preserve" width="200px" height="200px" version="1.1" style="shape-rendering:geometricPrecision; text-rendering:geometricPrecision; image-rendering:optimizeQuality; fill-rule:evenodd; clip-rule:evenodd"
viewBox="0 0 5079.98 5079.98"
 xmlns:xlink="http://www.w3.org/1999/xlink">
 <defs>
  <style type="text/css">
   <![CDATA[
    .str0 {stroke:#305C9B;stroke-width:20;stroke-miterlimit:22.9256}
    .fil2 {fill:#FEFEFE}
    .fil1 {fill:#264777}
    .fil0 {fill:#305C9B}
   ]]>
  </style>
 </defs>
 <g id="Camada_x0020_1">
  <metadata id="CorelCorpID_0Corel-Layer"/>
  <path class="fil0 str0" d="M2539.99 4826.27c-2948,-70.86 -3303.62,-3889.27 -587.49,-4495.61 1311.08,-292.67 2576.17,331.86 2952.75,1669.84 381.02,1503.65 -786.61,2768.36 -2265.97,2822.16l-99.29 3.61z"/>
  <path class="fil1" d="M4916.13 2045.18l-1813 -810.48 -1361.38 2962.52 1632.1 493.44c1422.78,-544.08 1743.52,-1557.69 1542.28,-2645.48z"/>
  <circle class="fil2" cx="2539.99" cy="1887.65" r="876.9"/>
  <path class="fil2" d="M1741.75 4197.22l1596.48 0c27.11,0 49.29,-22.18 49.29,-49.29l0 -1014.46c0,-213.38 -189.16,-465.48 -387.96,-387.96 -358.38,139.74 -654.83,113.09 -919.14,0 -196.18,-83.94 -387.96,174.58 -387.96,387.96l0 1014.46c0,27.11 22.18,49.29 49.29,49.29z"/>
 </g>
</svg>
